# xmcd
#
# Track frame offsets:
#	150
#	13421
#	30898
#	48532
#	68704
#	86406
#	107975
#	124491
#	142035
#	158182
#	173926
#	192040
#	207376
#	223563
#	244397
#
# Disc length: 3501 seconds
#
# Revision: 0
# Processed by: cddbd v1.5.2PL0 Copyright (c) Steve Scherf et al.
# Submitted via: audiograbber 1.83.01
#
DISCID=de0dab0f
DTITLE=Shania Twain - Greatest hits Disc 2
DYEAR=1900
DGENRE=Country
TTITLE0=Up
TTITLE1=She's not just a pretty face
TTITLE2=Man! I feel like a woman
TTITLE3=I'm gonna getcha good
TTITLE4=God bless this child
TTITLE5=For ever and for allways
TTITLE6=That don't impress me much
TTITLE7=Whatever you do! Don't
TTITLE8=Honey I'm home
TTITLE9=I'm not in the mood
TTITLE10=I ain't goin' down
TTITLE11=Ka-ching
TTITLE12=Don't be stupid
TTITLE13=(Wanna get to know you ) that good!
TTITLE14=Don't
EXTD=
EXTT0=
EXTT1=
EXTT2=
EXTT3=
EXTT4=
EXTT5=
EXTT6=
EXTT7=
EXTT8=
EXTT9=
EXTT10=
EXTT11=
EXTT12=
EXTT13=
EXTT14=
PLAYORDER=
